<?xml version="1.0" encoding="utf-8"?>
<!-- Generator: Adobe Adobe Illustrator 24.2.0, SVG Export Plug-In . SVG Version: 6.00 Build 0)  -->
<svg version="1.1" xmlns="http://www.w3.org/2000/svg" xmlns:xlink="http://www.w3.org/1999/xlink" x="0px" y="0px" width="1672px"
	 height="1669px" viewBox="0 0 1672 1669" style="enable-background:new 0 0 1672 1669;" xml:space="preserve">
<style type="text/css">
	.st0{display:none;}
	.st1{display:inline;}
	.st2{stroke:#FF0000;stroke-miterlimit:10;}
	.st3{fill:#FFFFFF;}
	.st4{fill:#050505;}
	.st5{fill:#030303;}
	.st6{fill:none;stroke:#000000;stroke-width:50;stroke-miterlimit:10;}
</style>
<g id="Layer_1">
	<g id="Layer_2_1_">
		<g id="Layer_6">
			<g id="Layer_5" class="st0">
				<g class="st1">
					<g>
						<path class="st2" d="M1427.37,23c29.93,0,58.95,5.86,86.26,17.41c26.39,11.16,50.09,27.14,70.45,47.51
							s36.34,44.07,47.51,70.46c11.55,27.31,17.41,56.33,17.41,86.26v1179.74c0,29.93-5.86,58.95-17.41,86.26
							c-11.16,26.39-27.15,50.09-47.51,70.45s-44.07,36.34-70.45,47.51c-27.31,11.55-56.33,17.41-86.26,17.41H244.63
							c-29.93,0-58.95-5.86-86.26-17.41c-26.39-11.16-50.09-27.15-70.45-47.51s-36.34-44.07-47.51-70.45
							C28.86,1483.32,23,1454.3,23,1424.37V244.63c0-29.93,5.86-58.95,17.41-86.26c11.16-26.39,27.15-50.09,47.51-70.46
							s44.07-36.34,70.45-47.51C185.68,28.86,214.7,23,244.63,23H1427.37 M1427.37,0H244.63C109.52,0,0,109.52,0,244.63v1179.74
							C0,1559.48,109.52,1669,244.63,1669h1182.74c135.11,0,244.63-109.52,244.63-244.63V244.63C1672,109.52,1562.48,0,1427.37,0
							L1427.37,0z"/>
					</g>
				</g>
			</g>
			<g id="Layer_9">
				<g>
					<path class="st3" d="M367.62,1630.9c-87.97,0-170.67-34.26-232.87-96.46s-96.46-144.9-96.46-232.87V358.18
						c0-87.97,34.26-170.67,96.46-232.87s144.9-96.46,232.87-96.46h924.31c87.97,0,170.67,34.26,232.87,96.46
						s96.46,144.9,96.46,232.87v943.39c0,87.97-34.26,170.67-96.46,232.87s-144.9,96.46-232.87,96.46H367.62z"/>
					<path d="M1291.94,40.35c42.92,0,84.54,8.4,123.71,24.97c37.84,16.01,71.84,38.93,101.03,68.12
						c29.2,29.2,52.12,63.19,68.12,101.03c16.57,39.17,24.97,80.79,24.97,123.71v943.39c0,42.92-8.4,84.54-24.97,123.71
						c-16.01,37.84-38.93,71.84-68.12,101.03c-29.2,29.2-63.19,52.12-101.03,68.12c-39.17,16.57-80.79,24.97-123.71,24.97H367.62
						c-42.92,0-84.54-8.4-123.71-24.97c-37.84-16.01-71.84-38.93-101.03-68.12c-29.2-29.2-52.12-63.19-68.12-101.03
						c-16.57-39.17-24.97-80.79-24.97-123.71V358.18c0-42.92,8.4-84.54,24.97-123.71c16.01-37.84,38.93-71.84,68.12-101.03
						c29.2-29.2,63.19-52.12,101.03-68.12c39.17-16.57,80.79-24.97,123.71-24.97H1291.94 M1291.94,17.35H367.62
						c-188.24,0-340.83,152.6-340.83,340.83v943.39c0,188.24,152.6,340.83,340.83,340.83h924.32
						c188.24,0,340.83-152.59,340.83-340.83V358.18C1632.77,169.94,1480.17,17.35,1291.94,17.35L1291.94,17.35z"/>
				</g>
			</g>
			<g id="Layer_8">
				<path class="st4" d="M542.84,1622.1c73.24,4.14,146.74,6.39,219.84-0.92c170.17-3.94,340.55,6.42,510.59-6.23
					c36.84-2.1,73.33-2.89,110.22-2.1c45.84,0.49,93.41,5.61,137.39-10.4c35.2-17.17,65-43.02,95.95-66.64
					c-2.8,2.16-5.6,4.33-8.4,6.49c4.63-3.59,9.22-7.23,13.78-10.9c10.29-40.17,15.47-75.08,27.29-114.83
					c11.72-11.28-3.19-812.8,0.58-826.27c-50.7,13.79-203.24,61.85-366.13,87.53c-115,18.13-280.94,38.41-346.77,46.61
					c-17.69,2.2-31.96,15.5-35.46,32.98c-2.3,11.47-1.92,23.89-2.29,30.33l-29.66,428.35c18.41,25.52-322.42,382.89-334.1,405.89
					C538.11,1622.01,540.51,1622.06,542.84,1622.1z"/>
				<path class="st4" d="M1605.06,142.79c-33.27-42.31-74.6-76.94-114.75-112.37C1294.68-5.61,1096.18,47.31,899.42,19.5
					l17.11,229.81l716.23,51.71l-1.83-116.55C1622.53,170.45,1614.65,156.04,1605.06,142.79z"/>
			</g>
			<g>
				<g>
					<path class="st5" d="M510.15,727.9c-129.99,0-381.02-22.75-460.22-32.91c73.55,22.57,1278.19-26.05,1559.5-167.35
						c0-64.8,7.44-83.65,4.01-162.21c-142.75-19.33-384.63-23.94-768.66-70.47c-0.49-11.31-10-247.11-10.7-264.24
						c-41.77-0.69-83.6,0.32-125.43,0.25c5.35,106.1,15.52,307.8,21.07,387.04c272.68,23.51,707.04,49.91,705.66,50.66
						c0,0-197.09,43.54-263.62,53.26c-79.54,11.61-320.2,29.11-320.2,29.11c-2.13-0.46-245.51-81.99-248.33-82.21
						c-71.98,11.62-195.57,22.11-275.93,20.94c33.06-3.84,97.08-10.7,147.69-21.52c48.91-10.46,86.78-17.29,112.72-30.19
						c0,0-8.48-297.49-13.28-413.21c-0.03-0.02-0.04-0.04-0.06-0.06C441.1,27.04,307.72,29.34,174.63,37.3
						c-36.39,21.33-69.42,48.38-98.56,78.85c-2.7,2.91-5.32,5.88-7.89,8.91c0,0-40.45,59.16-40.45,93.54
						c0,251.31,0.33,1139.25-0.94,1214.76c14.07,13.04-1.48,71.36,65.29,119.59c159.76,115.45,167.64,101.32,342.28,56.58
						c13.05-8.75,323.96-377.85,334.65-387.35c4.76-5.52,7.46-12.64,8.27-21.75c10.52-134.31,20.63-286.62,32.4-451.58
						c-0.22-6.77-5.38-13.29-11.81-15.52"/>
					<path class="st3" d="M158.35,1459.54c-14.59,5.92-25.4,28.86-18.49,49.61c12.32,32.57,48.34,40.54,79.73,40.85
						c111.06,3.6,192.07-78.72,232.74-152.86c27.94-69.07,192.55-388.97,215.15-510.75c-49.59,27.97-206.67,103.73-266.99,121.43
						c-8.2,2.46-15.81,6.47-22.45,11.91c-36.28,29.71-156.43,128.52-166.52,141.26c-3.16,4.08-8.4,5.82-13.38,4.92
						c0,0-51.94-11.38-67.15-13.22c-3.78-0.48-7.42,2.05-8.24,5.85c-2.99,13.49-7.14,48.92-6.62,71.66
						c0.13,5.91,5.04,10.54,10.9,10.41c46.48,10.05,243-48.42,288.54-84.66c10.02-4.99-2.02-21.49-3.94-25.12
						c-9.29-20.34,40.54-20.15,45.99-21.47c11.26-0.03,19.1,18.5,22.04,28.9c8.58,29.97,21.62,47.2-5.14,70.17
						c-5.6-1.72-6.85-10.51-21.13-11.9c-24.63,7.2-84.9,41-161.35,68.41c-49.23,17.65-100.01,27.51-137.73,34.98
						c-21.87,4.34-31.77,19.8-23.95,47.97c4.34,15.58,20.05,19.15,36.65,19.15c28.65-1.32,46.38-4.19,76.89-3.68
						C436.79,1358.89,232.6,1427.81,158.35,1459.54z"/>
				</g>
			</g>
		</g>
		<path class="st6" d="M39.23,1409.12V259.88c0-122.69,99.46-222.15,222.15-222.15h1149.23c122.69,0,222.15,99.46,222.15,222.15
			v1149.23c0,122.69-99.46,222.15-222.15,222.15H261.38C138.69,1631.27,39.23,1531.81,39.23,1409.12z"/>
	</g>
</g>
<g id="Layer_2">
	<g>
		<g>
			<path d="M1439.24,72c42.94,0,83.31,16.72,113.67,47.08c30.36,30.36,47.08,70.73,47.08,113.67v1203.49
				c0,42.94-16.72,83.31-47.08,113.67c-30.36,30.36-70.73,47.08-113.67,47.08H232.76c-42.94,0-83.31-16.72-113.67-47.08
				C88.72,1519.55,72,1479.18,72,1436.24V232.76c0-42.94,16.72-83.31,47.08-113.67C149.45,88.72,189.82,72,232.76,72H1439.24
				 M1439.24,0H232.76C104.21,0,0,104.21,0,232.76v1203.49C0,1564.79,104.21,1669,232.76,1669h1206.49
				c128.55,0,232.76-104.21,232.76-232.76V232.76C1672,104.21,1567.79,0,1439.24,0L1439.24,0z"/>
		</g>
	</g>
</g>
</svg>
