<?xml version="1.0" encoding="UTF-8" standalone="no"?>
<!-- Generator: Adobe Adobe Illustrator 24.2.0, SVG Export Plug-In . SVG Version: 6.00 Build 0)  -->

<svg
   version="1.1"
   id="Layer_2"
   x="0px"
   y="0px"
   width="1491px"
   height="1165px"
   viewBox="0 0 1491 1165"
   style="enable-background:new 0 0 1491 1165;"
   xml:space="preserve"
   sodipodi:docname="zoro-orange-outline.svg"
   inkscape:version="1.4.2 (ebf0e940, 2025-05-08)"
   xmlns:inkscape="http://www.inkscape.org/namespaces/inkscape"
   xmlns:sodipodi="http://sodipodi.sourceforge.net/DTD/sodipodi-0.dtd"
   xmlns="http://www.w3.org/2000/svg"
   xmlns:svg="http://www.w3.org/2000/svg"><defs
   id="defs4" /><sodipodi:namedview
   id="namedview4"
   pagecolor="#ffffff"
   bordercolor="#000000"
   borderopacity="0.25"
   inkscape:showpageshadow="2"
   inkscape:pageopacity="0.0"
   inkscape:pagecheckerboard="0"
   inkscape:deskcolor="#d1d1d1"
   inkscape:zoom="0.12624739"
   inkscape:cx="1033.6847"
   inkscape:cy="35.644301"
   inkscape:window-width="1472"
   inkscape:window-height="890"
   inkscape:window-x="0"
   inkscape:window-y="38"
   inkscape:window-maximized="0"
   inkscape:current-layer="Layer_2" />
<style
   type="text/css"
   id="style1">
	.st0{fill:#FFFFFF;}
	.st1{fill:#030303;}
	.st2{display:none;fill:#030303;}
</style>
<g
   id="Layer_3">
	<path
   class="st0"
   d="M411.75,454.75c1.99,0.74,492.58-63.23,492.58-63.23l-5.42-254.04l126.59-25.62l13.43,272.33l354.7,37.94   l-304.53,84.55l-30.45,352.55l-285.71,263L411.75,454.75z"
   id="path1" />
</g>
<g
   id="g3">
	<path
   class="st1"
   d="M755.57,1143.5c-24.2,0-46.73-3.83-55.65-7.42c-17.3-6.98-30.48-19.71-31.92-21.14l-0.51-0.5l-0.47-0.54   c-2.16-2.46-3.27-3.74-3.9-4.47l-0.07-0.08c-0.77-0.72-2.18-2.06-5.43-5.31c-1.72-1.72-207.29-217.56-208.83-219.55   c-1.69-2.18-2.79-4.22-3.38-5.32l-0.1-0.18c-0.93-1.66-1.95-3.89-3.03-8.73l-0.15-0.69l-45.93-300.93   c-0.09-0.58-0.35-1.82-0.85-3.82c-1.49-0.19-2.72-0.33-3.64-0.41c-39.02-3.45-115.35-11.08-188.13-23.48   C73.94,518.84,42.91,496.28,30.86,481.24c-8.94-11.16-9.7-21.97-8.76-29.07c4.45-33.63,51.31-58.7,156.66-83.82   c73.05-17.42,154-29.57,195.74-35.26c1.29-0.18,2.76-0.4,4.3-0.64c0.02-2.02,0.02-3.53,0.01-4.39l-3.13-193.38   c-0.41-25.45,14.03-48.87,36.8-59.68c15.35-7.29,31.83-11.64,53.43-16.99c28.64-7.1,105.09-24.33,196.24-31.1   c41.43-3.08,71.01-4.39,98.9-4.39c27.42,0,52.49,1.25,87.2,2.98c5.46,0.27,11.16,0.56,17.15,0.85l0.19,0.01   c109.12,6.36,174.06,21.96,181.47,24.57c1.58,0.56,3.87,1.21,6.3,1.9c7.05,2.01,15.83,4.52,23.82,9.08   c15.88,9.06,20.31,21.59,21.22,30.51c2.59,25.2,3.48,57.43,3.55,60.21c0,0,6.15,152.19,6.21,153.61   c29.07,3.52,83.15,10.09,87.99,10.78c6.69,0.96,13.87,1.96,21.44,3.02c47.13,6.57,105.79,14.75,154.45,27.36   c28.01,7.26,49.08,15.06,64.41,23.84c28.61,16.4,33.78,35.36,33.07,48.38c-1.9,35.21-44.88,55.26-77.04,67.29   c-35.3,13.2-84.63,25.71-146.62,37.2c-55.95,10.37-114.93,18.57-165.19,24.7c1.77,1.09,3.4,2.42,4.85,3.95   c4.53,4.8,6.92,11.34,6.53,17.94c-0.55,9.57-1.31,22.11-1.76,27.44c-5.96,69.69-11.69,139.28-15.88,190.1   c-2.76,33.57-4.76,57.82-5.7,68.45c-0.75,8.51-3.6,15.69-8.48,21.34l-193.58,224.96c-1.97,2.29-4.18,4.39-6.55,6.25   c-1.53,1.19-2.58,1.96-3.49,2.58c-5.47,3.65-19.17,12.59-29.43,17.5C807.48,1138.72,783.38,1143.5,755.57,1143.5z M758.13,1028.48   c-0.08,0.36-0.11,0.76-0.02,1.02c0.58,1.75,3.46,3.7,7.51,5.1c3.84,1.32,8.67,2,14.35,2c12.28,0,25.76-3.1,34.82-5.43   c26.18-6.74,47.1-33.73,58.33-48.22c0.77-0.99,1.49-1.93,2.17-2.8c2.62-3.35,4.91-7.04,6.83-10.97   c5.85-12.01,17.77-37.27,31.91-68.1c-0.64,0.06-1.3,0.09-1.98,0.09h-3.12l-2.99-0.93c-2.61-0.82-4.76-1.97-6.49-3.16   c-4.21,1.82-9.43,4.24-14.82,6.73c-15.35,7.1-36.37,16.82-60.22,25.35c-12.73,4.55-25.59,8.14-37.7,11.08   c1.92-0.02,3.88-0.04,5.87-0.04c36.65,0,44.43,3.35,47.36,4.62c7.35,3.17,13.06,9.89,14.9,17.53c1.73,7.17,0.06,14.5-4.58,20.13   c-9.86,11.96-33.26,22.61-81.97,41.97C764.71,1025.86,761.29,1027.21,758.13,1028.48z M747.56,876.01c1-0.08,2.02-0.16,3.05-0.25   c-0.99-0.21-1.98-0.41-2.97-0.61C747.62,875.44,747.59,875.73,747.56,876.01z M977.94,754.8c-8.05,3.96-16.39,7.96-24.44,11.63   c-15.5,7.08-53.73,24.2-73.93,30.24c-1.69,0.5-3.21,1.3-4.53,2.38c-48.46,39.59-75.52,62.57-82.38,69.11   c8.79-2.4,18.17-5.47,28.17-9.38c23.12-9.06,31.67-12.7,37.92-15.92c-0.79-4.38-0.38-8.98,1.29-13.4   c3.03-8.03,9.66-14.18,17.74-16.45c7.72-2.17,20.48-4.03,25.52-4.03l0.29,0c14.07,0.15,25.6,11.3,30.85,29.85   c0.35,1.23,0.91,2.93,1.5,4.74c0.56,1.69,1.14,3.47,1.71,5.31C951.97,816.74,966.43,783.33,977.94,754.8z M958.97,408.94   c5.63,1.34,15.83,3.88,22.48,6.28c3.75,1.35,20.32,7.9,49.27,19.36c28.08,11.11,68.96,27.28,81.37,31.92   c32.05-3.28,80.04-12.06,105.55-17.39c10.56-2.21,16.34-3.41,22.22-4.62c6.05-1.25,12.21-2.53,23.81-4.95   c3.8-0.79,7.08-1.58,10.89-2.57c-81.06-6.98-191.84-17.83-247.74-29.03l-15.35-3.08l-1.07-15.62   c-3.2-46.68-9.94-179.92-12.7-235.21c-8.45,1.95-17.14,3.94-22.38,5.11c-6.87,1.53-17.34,3.61-26.33,5.34   c2.38,57.37,9.63,232.39,9.87,240.62L958.97,408.94z"
   id="path2"
   style="fill:#ff5500;fill-opacity:1" />
	<path
   class="st0"
   d="M761.06,43c31.17,0,59.49,1.66,103.35,3.8c105.17,6.13,168.99,21.02,175.86,23.44   c11.96,4.2,36.03,7.47,37.75,24.24c2.6,25.3,3.45,58.78,3.45,58.78l6.06,150c0.25,6.29,0.88,21.2,0.88,21.2   s98.61,11.93,104.84,12.82c86.98,12.47,258.45,32.26,255.81,81.2c-4.28,79.1-436.53,117.26-492.93,123.17   c-86.84,9.1-158.15,12.54-221.7,12.54c-76.45,0-141.68-4.99-209.2-11.14c-0.17-0.02-0.31-0.02-0.42-0.02   c-6.93,0,103.52,29.92,282.74,29.92c255.44,0,252.51-6.19,259.97-7.25c0.17-0.02,0.34-0.04,0.51-0.04c2.02,0,3.69,1.72,3.56,3.81   c-0.42,7.27-1.26,21.42-1.72,26.88c-9.87,115.5-19.22,231.83-21.57,258.49c-0.32,3.61-1.22,7.02-3.58,9.76l-193.59,224.97   c-1.09,1.27-2.3,2.43-3.62,3.46c-0.83,0.65-1.72,1.32-2.24,1.67c-1.19,0.79-16.66,11.17-26.92,16.08   c-19.54,9.35-42.65,12.21-62.79,12.21c-23.47,0-42.92-3.89-47.99-5.93c-13.98-5.64-25.18-16.71-25.18-16.71   c-7.88-8.95-1.19-1.72-10.29-10.82c-0.99-0.99-206.35-216.61-207.12-217.6c-0.81-1.04-1.42-2.27-1.78-2.92   c-0.36-0.65-0.94-3.24-0.94-3.24l-45.82-300.23c-0.62-4.06-2.84-11.77-4.13-16.03c-0.56-1.86-2.12-3.23-4.03-3.53   c-3.97-0.62-10.82-1.65-14.8-2c-78.01-6.89-358.2-35.4-351.08-89.13c6.99-52.77,257.64-90.93,334.85-101.46   c6.07-0.83,15.48-2.54,19.65-3.31c1.24-0.23,2.13-1.29,2.15-2.55c0.09-4.76,0.29-16.04,0.23-19.82l-3.13-193.38   c-0.28-17.33,9.44-33.4,25.1-40.83c12.96-6.15,27-10.02,49.57-15.61c26-6.44,101.27-23.75,192.83-30.56   C705.83,44.2,734.48,43,761.06,43 M784.6,440.35c4.65,0,8.98-0.04,12.79-0.13c33.45-0.78,66.96-1.29,100.19-5.39   c15.7-1.94,52.98-6.8,52.98-6.8s15.85,3.56,23.94,6.47c9.37,3.38,133.04,52.83,135.13,52.83c0,0,0.01,0,0.01,0   c34.62-3.13,88.58-13.22,112.2-18.16c21.41-4.48,23.16-4.8,46.04-9.58c12.07-2.52,19.06-4.86,48.1-12.81   c9.18-2.51,32.24-10.77,44.14-15.15c0.73-0.27,13.86-7.27,13.11-7.36c0,0-250.19-17.97-342.38-36.44   c-4.09-59.69-13.89-259.31-13.89-259.31s-33.5,7.79-46.1,10.6c-13.71,3.06-43.09,8.51-43.09,8.51s10.31,248.45,10.6,258.08   c-2.14,0.43-3.19,6.59-77.07,15.09c-145.94,16.81-153.26,17.83-153.26,17.83S753.52,440.35,784.6,440.35 M770.19,858.79   c-0.44,0-0.89-0.04-1.34-0.12c0,0-26.91-5.88-34.79-6.83c-0.16-0.02-0.32-0.03-0.47-0.03c-1.81,0-3.4,1.25-3.8,3.05   c-1.55,6.97-3.7,25.27-3.43,37.02c0.07,3.01,2.53,5.38,5.53,5.38c0.04,0,0.08,0,0.12,0c20.88-0.44,53.44-2.61,96.31-19.4   c39.38-15.43,38.92-16.18,53.19-24.33c2.3-1.31,2.66-4.64,1.35-6.93c-1.66-2.9-2.98-5.43-3.39-6.05c-1.78-2.74,0.72-6.94,3.86-7.82   c6.35-1.78,17.15-3.27,19.97-3.27c0.03,0,0.05,0,0.08,0c5.77,0.06,9.83,9.58,11.34,14.93c1.96,6.94,6.76,18.33,5.61,24.98   c-0.49,2.82-7.74,11.27-8.27,11.27c0,0-0.01,0-0.01,0c-2.89-0.9-3.55-5.43-10.94-6.15c-12.76,3.72-43.99,21.18-83.6,35.34   c-25.51,9.12-51.82,14.21-71.36,18.07c-11.33,2.23-16.46,10.23-12.41,24.78c2.25,8.05,10.39,9.89,18.99,9.89   c5.79,0,11.79-0.84,16.34-1.18c6.32-0.47,14.79-0.72,23.5-0.72c16.85,0,34.57,0.93,39.24,2.94c2.12,0.91,4.21,3.87,2.62,5.79   c-9.49,11.51-58.88,29.9-86.2,40.96c-7.56,3.06-13.16,14.91-9.58,25.63c3.18,9.54,11.72,15.04,20.28,17.99   c6.47,2.23,13.64,3.11,21.03,3.11c13.53,0,27.82-2.97,39.93-6.08c34.97-9,59.86-43.3,71.55-58.25c3.55-4.54,6.59-9.44,9.11-14.63   c17.58-36.13,91.42-194.92,113.78-261.9c0.38-1.12-0.5-2.15-1.54-2.15c-0.25,0-0.52,0.06-0.77,0.2   c-10.25,5.45-40.53,21.37-67.05,33.49c-25,11.42-55.41,24.5-71.28,29.24c-4.25,1.27-8.19,3.34-11.63,6.15   c-18.8,15.35-81.05,66.39-86.28,72.97C774.42,857.87,772.35,858.79,770.19,858.79 M761.06,2L761.06,2   c-28.42,0-58.46,1.33-100.42,4.45c-92.72,6.89-170.51,24.43-199.66,31.65c-22.77,5.64-40.21,10.26-57.29,18.37   c-30.01,14.25-49.05,45.07-48.51,78.53l2.91,179.67C313.49,321,240.58,332.53,174,348.4c-43.2,10.3-78.03,21.14-103.51,32.22   c-16.89,7.34-30.1,14.89-40.39,23.09c-16.51,13.16-26.04,28.56-28.32,45.76c-2.07,15.64,2.57,31.47,13.08,44.58   c14.18,17.69,38.68,31.11,79.44,43.5c27.58,8.38,63.19,16.32,105.83,23.59c66.54,11.34,135.91,18.72,177.63,22.59l43.99,288.23   l0.21,1.4l0.31,1.38c1.3,5.82,2.82,10.06,5.07,14.12l0.02,0.04c0.75,1.38,2.5,4.63,5.22,8.15c1.78,2.3,1.78,2.3,106.2,111.97   c10.53,11.06,102.96,108.13,104.35,109.53c2.47,2.47,3.99,3.95,5.07,4.99c0.7,0.81,1.76,2.03,3.42,3.92l0.94,1.07l1.02,1   c2.85,2.81,18.09,17.27,38.66,25.57c13.01,5.25,39.05,8.91,63.33,8.91c30.9,0,57.98-5.46,80.48-16.23   c11.01-5.27,24.7-14.1,31.88-18.89l0.08-0.06c1.36-0.91,2.78-1.94,4.73-3.47c3.43-2.68,6.62-5.72,9.47-9.03l193.59-224.97   c7.72-8.96,12.22-20.04,13.35-32.91c0.94-10.69,2.95-35.02,5.72-68.69c4.18-50.77,9.91-120.31,15.86-189.91   c0.48-5.58,1.24-18.31,1.8-28.01c0.12-2.14,0.09-4.28-0.1-6.4c43.47-5.66,91.3-12.7,137.17-21.2   c63.16-11.7,113.65-24.54,150.07-38.16c23.72-8.87,41.96-18.15,55.79-28.39c27.09-20.06,33.73-42.07,34.54-56.99   c0.84-15.61-4.2-30.71-14.59-43.67c-7.11-8.86-16.51-16.58-28.76-23.6c-16.93-9.71-39.66-18.18-69.46-25.9   c-49.81-12.91-111.63-21.52-156.77-27.82c-7.57-1.06-14.72-2.05-21.35-3c-4.18-0.6-41.41-5.14-71.13-8.74l-5.5-136.07   c-0.1-3.85-1.03-36.11-3.65-61.6c-1.15-11.21-6.77-32.12-31.45-46.21c-10.14-5.79-20.67-8.79-28.36-10.99   c-1.93-0.55-4.12-1.18-5.12-1.53c-13.46-4.73-82.79-19.61-187.08-25.69l-0.19-0.01l-0.19-0.01c-5.98-0.29-11.68-0.58-17.13-0.85   C814.28,3.26,788.99,2,761.06,2L761.06,2z M970.19,181.17c2.98-0.61,5.79-1.2,8.25-1.74c3.18,63.19,8.66,169.69,11.5,211.2   l0.41,6.03c-0.83-0.31-1.47-0.55-1.96-0.73c-2.84-1.02-6.14-2.05-9.49-3C977.42,355.73,972.64,240.23,970.19,181.17L970.19,181.17z    M1114.78,445.59c-3.9-1.5-9.06-3.5-15.01-5.83c10.14,1.27,20.66,2.52,31.36,3.73C1125.43,444.3,1119.93,445.01,1114.78,445.59   L1114.78,445.59z M932.06,798.37c2.21-0.95,4.41-1.9,6.56-2.84c-0.88,2.05-1.77,4.09-2.66,6.15   C934.71,800.51,933.41,799.4,932.06,798.37L932.06,798.37z M862.79,936.07c5.51-2.35,10.73-4.66,15.6-6.86   c-2.97,6.35-5.66,12.07-8.01,17.03C868.33,942.52,865.77,939.09,862.79,936.07L862.79,936.07z"
   id="path3" />
</g>
<path
   class="st2"
   d="M525.25,543.06c123.65,11.26,239.59,18.63,430.9-1.41c56.39-5.91,488.65-44.07,492.93-123.17  c2.65-48.94-168.83-68.73-255.81-81.2c-6.23-0.89-104.84-12.82-104.84-12.82s-0.62-14.91-0.88-21.2l-6.06-150  c0,0-0.85-33.48-3.45-58.78c-1.72-16.77-25.8-20.04-37.75-24.24c-6.87-2.42-70.7-17.31-175.86-23.44  c-81.27-3.97-109.17-6.27-200.74,0.54c-91.56,6.8-166.83,24.12-192.83,30.56c-22.57,5.59-36.6,9.46-49.57,15.61  c-15.66,7.43-25.38,23.5-25.1,40.83l3.13,193.38c0.06,3.78-0.14,15.06-0.23,19.82c-0.02,1.26-0.92,2.32-2.15,2.55  c-4.17,0.77-13.58,2.49-19.65,3.31c-77.21,10.52-327.86,48.69-334.85,101.46c-7.12,53.73,273.07,82.24,351.08,89.13  c3.98,0.35,10.82,1.38,14.8,2c1.92,0.3,3.47,1.67,4.03,3.53c1.28,4.27,3.51,11.97,4.13,16.03l45.82,300.23c0,0,0.58,2.59,0.94,3.24  c0.36,0.65,0.97,1.88,1.78,2.92c0.77,0.99,206.13,216.61,207.12,217.6c9.1,9.1,2.41,1.86,10.29,10.82c0,0,11.2,11.07,25.18,16.71  c9.42,3.8,68.46,13.97,110.77-6.28c10.26-4.91,25.74-15.29,26.92-16.08c0.52-0.35,1.41-1.02,2.24-1.67  c1.32-1.03,2.53-2.19,3.62-3.46l193.59-224.97c2.36-2.74,3.27-6.15,3.58-9.76c2.35-26.66,11.7-142.99,21.57-258.49  c0.47-5.46,1.3-19.62,1.72-26.88c0.13-2.26-1.83-4.09-4.07-3.77c-7.46,1.06-4.53,7.25-259.97,7.25  C625.46,572.95,514.36,542.06,525.25,543.06z M861.3,420.8c73.88-8.51,74.93-14.66,77.07-15.09c-0.29-9.63-10.6-258.08-10.6-258.08  s29.38-5.45,43.09-8.51c12.6-2.81,46.1-10.6,46.1-10.6s9.8,199.62,13.89,259.31c92.18,18.47,342.38,36.44,342.38,36.44  c0.75,0.09-12.38,7.09-13.11,7.36c-11.91,4.38-34.96,12.64-44.14,15.15c-29.04,7.96-36.02,10.29-48.1,12.81  c-22.88,4.78-24.62,5.1-46.03,9.58c-23.62,4.94-77.58,15.03-112.2,18.16c-1.72,0.16-125.75-49.44-135.14-52.83  c-8.09-2.91-23.94-6.47-23.94-6.47s-37.27,4.86-52.98,6.8c-33.23,4.1-66.74,4.61-100.19,5.39c-29.24,0.68-89.35-1.59-89.35-1.59  S715.35,437.61,861.3,420.8z M729.78,854.86c0.43-1.96,2.28-3.26,4.27-3.02c7.87,0.95,34.79,6.83,34.79,6.83  c2.62,0.46,5.29-0.45,6.94-2.53c5.23-6.58,67.49-57.61,86.28-72.97c3.43-2.81,7.38-4.88,11.63-6.15  c15.87-4.74,46.29-17.82,71.28-29.24c26.52-12.12,56.81-28.04,67.05-33.49c1.3-0.69,2.78,0.55,2.31,1.95  c-22.36,66.98-96.2,225.77-113.78,261.9c-2.52,5.18-5.56,10.09-9.11,14.63c-11.68,14.95-36.58,49.26-71.55,58.25  c-18.73,4.82-42.65,9.28-60.96,2.97c-8.57-2.95-17.1-8.45-20.28-17.99c-3.58-10.72,2.02-22.57,9.58-25.63  c27.32-11.06,76.71-29.44,86.2-40.96c1.58-1.92-0.51-4.87-2.63-5.79c-7.09-3.06-44.2-3.61-62.74-2.22  c-11.31,0.85-31.58,4.75-35.34-8.72c-4.06-14.54,1.08-22.54,12.41-24.78c19.54-3.86,45.85-8.95,71.36-18.07  c39.61-14.16,70.84-31.62,83.6-35.34c7.38,0.72,8.04,5.25,10.94,6.15c0.42,0.13,7.78-8.43,8.28-11.27  c1.15-6.65-3.64-18.04-5.61-24.98c-1.51-5.35-5.58-14.87-11.34-14.93c-2.69-0.03-13.64,1.46-20.04,3.27  c-3.14,0.88-5.64,5.08-3.86,7.82c0.4,0.62,1.73,3.15,3.39,6.05c1.31,2.3,0.94,5.62-1.35,6.93c-14.27,8.15-13.81,8.89-53.19,24.32  c-42.87,16.8-75.43,18.96-96.31,19.4c-3.05,0.06-5.58-2.33-5.65-5.38C726.09,880.14,728.24,861.84,729.78,854.86z"
   id="path4" />
</svg>
