<?xml version="1.0" encoding="UTF-8" standalone="no"?>
<svg
   width="54.683826"
   height="41.885479"
   viewBox="0 0 54.683826 41.885479"
   fill="none"
   version="1.1"
   id="svg8"
   sodipodi:docname="zoro-logo.svg"
   inkscape:version="1.4.2 (ebf0e940d0, 2025-05-08)"
   xmlns:inkscape="http://www.inkscape.org/namespaces/inkscape"
   xmlns:sodipodi="http://sodipodi.sourceforge.net/DTD/sodipodi-0.dtd"
   xmlns="http://www.w3.org/2000/svg"
   xmlns:svg="http://www.w3.org/2000/svg">
  <defs
     id="defs8" />
  <sodipodi:namedview
     id="namedview8"
     pagecolor="#ffffff"
     bordercolor="#000000"
     borderopacity="0.25"
     inkscape:showpageshadow="2"
     inkscape:pageopacity="0.0"
     inkscape:pagecheckerboard="0"
     inkscape:deskcolor="#d1d1d1"
     inkscape:zoom="5.6568543"
     inkscape:cx="9.9878833"
     inkscape:cy="54.889164"
     inkscape:window-width="1885"
     inkscape:window-height="1167"
     inkscape:window-x="0"
     inkscape:window-y="0"
     inkscape:window-maximized="1"
     inkscape:current-layer="svg8" />
  <path
     fill-rule="evenodd"
     clip-rule="evenodd"
     d="m 17.393623,0.57773373 c -3.1704,0.61742597 -4.4151,2.33607597 -4.8397,6.68496597 -0.3308,3.3791003 -0.7468,3.7519003 -5.5422999,4.9631003 -2.85148,0.7208 -5.74065,1.8663 -6.41955996,2.5451 -2.05939004,2.0592 1.43972996,4.4351 7.61035996,5.1657 l 5.5756999,0.6605 0.7253,5.4663 c 0.5938,4.4825 1.5927,6.394 5.5531,10.6265 6.4206,6.8649 9.2764,6.9091 15.1496,0.2382 3.5142,-3.9923 4.4722,-6.031 5.066,-10.7861 0.777,-6.2162 0.2974,-5.7884 8.2946,-7.4112 1.3341,-0.2705 3.3946,-1.2101 4.58,-2.0882 1.9161,-1.4202 1.9764,-1.778 0.5388,-3.2208 -0.889,-0.8922 -4.0411,-2.0214 -7.0047,-2.5095 -5.3785,-0.8857 -5.3893,-0.8954 -5.7136,-5.3359303 -0.2587,-3.52566 -0.818,-4.58163397 -2.6942,-5.08376097 -2.6057,-0.699314 -17.1583,-0.638972 -20.8794,0.085125 z m 18.8589,0.99024597 c 2.9743,0.59479 3.345,1.10985 3.637,5.06545 l 0.3255,4.4038703 5.927,1.1292 c 3.9086,0.7457 5.9271,1.6573 5.9271,2.6777 0,1.8339 -4.1382,3.0267 -14.8058,4.267 -6.939,0.807 -7.2321,0.9256 -2.5907,1.0495 4.2987,0.1153 5.1167,0.445 4.58,1.8447 -0.3599,0.9375 -0.6541,3.3727 -0.6541,5.4113 0,2.8469 -1.0324,4.8274 -4.4475,8.5319 -2.4462,2.6539 -5.2556,4.8251 -6.2417,4.8251 -0.9871,0 -3.8256,-2.0699 -6.3096,-4.601 -3.5584,-3.6248 -4.7481,-5.8272 -5.6124,-10.383 -0.6035,-3.1809 -1.097,-5.9038 -1.097,-6.0503 0,-0.1477 -2.6597,-0.6002 -5.9098999,-1.0064 -5.50135,-0.6875 -8.07584996,-2.0473 -6.62318,-3.4998 0.3373,-0.3373 3.17475,-1.1907 6.30428,-1.8965 5.5885999,-1.2596 5.6920999,-1.3534 5.8008999,-5.2971003 0.1261,-4.58056 0.944,-5.67641 4.7384,-6.3574 4.3074,-0.77258897 13.4534,-0.83400797 17.0517,-0.11422 z m -1.2458,3.28861 c -0.3955,0.39437 -0.7188,2.83066 -0.7188,5.4135103 0,4.1312 0.3567,4.8327 2.9635,5.8262 1.7555,0.6691 4.941,0.7995 7.813,0.3189 l 4.8494,-0.8103 -6.1965,-1.0075 -6.1965,-1.0064 V 8.8638997 c 0,-4.4157 -0.8125,-5.7098 -2.5141,-4.00731 z M 33.210223,27.5504 c -0.889,0.3383 -2.7727,1.5117 -4.1866,2.6086 -2.7523,2.1357 -1.3449,2.724 2.1025,0.8793 1.2651,-0.6778 2.0841,-0.7112 2.0841,-0.0862 0,0.5668 -1.5755,1.3803 -3.5023,1.807 -2.9441,0.653 -3.1661,0.8965 -1.3945,1.5247 2.0206,0.7166 2.026,0.7931 0.1304,1.8534 -1.3794,0.7715 -1.5949,1.3415 -0.7134,1.8867 1.7178,1.0614 4.1446,-1.1422 6.6362,-6.0244 2.8202,-5.5267 2.7178,-5.9221 -1.1564,-4.4491 z"
     id="zoro-figure"
     fill="#000000"
     style="fill:#ffffff;fill-opacity:1" />
  <path
     style="opacity:1;fill:#000000;fill-opacity:1;fill-rule:evenodd;stroke:none;stroke-width:0;stroke-dasharray:none;stroke-opacity:1;paint-order:markers stroke fill"
     d="M 27.300579,40.570343 C 25.9347,40.008532 23.646344,38.198731 21.433048,35.929868 18.435432,32.856994 17.202806,30.776917 16.368681,27.383663 16.194827,26.67642 15.378241,22.424635 15.054834,20.542756 14.948765,19.925547 14.88441,19.695847 14.805765,19.653757 14.53527,19.508992 12.61625,19.196805 8.4666731,18.622508 4.9518932,18.136067 2.5547404,17.301724 2.0900342,16.403081 1.866375,15.970572 2.1053989,15.386615 2.610168,15.132348 c 0.8727872,-0.439649 3.0062794,-1.053011 6.4190051,-1.845414 3.4895689,-0.810246 4.3387859,-1.131021 4.8452739,-1.830206 0.424185,-0.58557 0.529241,-1.158417 0.622478,-3.3942283 0.09564,-2.2934466 0.24503,-3.2081094 0.668204,-4.0912223 0.660595,-1.3785813 2.062326,-2.0259235 5.274292,-2.4357528 4.566879,-0.58270882 12.007683,-0.58227937 15.433502,8.907e-4 2.020627,0.3439672 2.918581,0.7808025 3.348344,1.6288993 0.377232,0.7444328 0.496192,1.5619705 0.775572,5.3300088 0.104306,1.4068032 0.19644,2.5628356 0.204741,2.5689606 0.0083,0.0061 0.872905,0.172692 1.921343,0.370148 6.106496,1.150059 7.187075,1.413602 8.59375,2.095932 0.939681,0.455807 1.411528,0.982495 1.308417,1.460485 -0.07189,0.333265 -0.260867,0.641659 -0.540636,0.882281 -1.462021,1.257444 -5.49542,2.162278 -14.361531,3.2218 -4.626298,0.552854 -5.5625,0.694159 -5.5625,0.839571 0,0.122052 0.311379,0.1523 2.28125,0.221604 3.299762,0.116092 4.376966,0.231951 5.016659,0.539565 0.344508,0.165666 0.514591,0.388535 0.514591,0.674295 0,0.08658 -0.06733,0.363677 -0.149618,0.615765 -0.367583,1.126059 -0.660527,3.534033 -0.662264,5.443749 -0.0024,2.672739 -0.983045,4.646427 -3.947679,7.945521 -2.672065,2.973519 -5.645865,5.340783 -6.709189,5.340783 -0.1375,0 -0.409118,-0.06545 -0.603594,-0.14544 z m 2.374266,-2.533754 c 0.718633,-0.362764 1.354319,-0.925343 2.131997,-1.886808 0.966001,-1.19429 1.735822,-2.457557 2.909703,-4.774781 1.83251,-3.617349 2.046587,-4.59375 1.007185,-4.59375 -0.453788,0 -1.972458,0.481198 -2.944557,0.932997 -1.443668,0.670969 -4.267424,2.64884 -4.880481,3.418482 -0.266251,0.334257 -0.338269,0.484291 -0.338269,0.704713 0,0.264389 0.172865,0.341357 0.682092,0.3037 0.570905,-0.04222 1.409097,-0.339012 2.692908,-0.953525 1.474991,-0.706022 1.785094,-0.781465 2.099729,-0.510828 0.224044,0.192715 0.169275,0.423418 -0.176248,0.742403 -0.543236,0.501513 -1.760201,0.973125 -3.736378,1.447963 -1.56326,0.375622 -1.937103,0.528959 -1.937103,0.794526 0,0.204003 0.226185,0.317792 1.847586,0.929485 0.48783,0.184038 0.777414,0.374456 0.777414,0.511193 0,0.131711 -0.389395,0.424588 -1.186039,0.892062 -0.878433,0.515466 -1.20705,0.769654 -1.348404,1.043003 -0.151378,0.292733 -0.114728,0.527988 0.118605,0.761322 0.556058,0.556058 1.46257,0.650612 2.28026,0.237843 z m 14.354328,-21.43979 c 1.201763,-0.160422 5.905707,-0.965402 5.861399,-1.003053 -0.02689,-0.02285 -2.81218,-0.488617 -6.189524,-1.035028 l -6.140625,-0.993474 -9.67e-4,-2.720122 c -5.32e-4,-1.4960673 -0.02959,-3.1419973 -0.06457,-3.6576223 -0.198,-2.9184127 -0.93879,-3.7439539 -2.295005,-2.5575701 -0.279456,0.2444618 -0.34375,0.3449028 -0.449777,0.7026525 -0.504941,1.70373 -0.665148,6.3215359 -0.282436,8.1408889 0.254259,1.208706 0.844892,1.852418 2.231131,2.43164 1.006657,0.420617 1.755379,0.596778 3.299126,0.776225 0.410942,0.04777 3.530124,-0.01764 4.03125,-0.08454 z"
     id="path11" />
</svg>
