<?xml version="1.0" encoding="UTF-8" standalone="no"?>
<svg
   width="63"
   height="79"
   viewBox="0 0 63 79"
   fill="none"
   version="1.1"
   id="svg8"
   sodipodi:docname="zoro-logo-full.svg"
   inkscape:version="1.4.2 (ebf0e940d0, 2025-05-08)"
   xmlns:inkscape="http://www.inkscape.org/namespaces/inkscape"
   xmlns:sodipodi="http://sodipodi.sourceforge.net/DTD/sodipodi-0.dtd"
   xmlns="http://www.w3.org/2000/svg"
   xmlns:svg="http://www.w3.org/2000/svg">
  <defs
     id="defs8" />
  <sodipodi:namedview
     id="namedview8"
     pagecolor="#ffffff"
     bordercolor="#000000"
     borderopacity="0.25"
     inkscape:showpageshadow="2"
     inkscape:pageopacity="0.0"
     inkscape:pagecheckerboard="0"
     inkscape:deskcolor="#d1d1d1"
     inkscape:zoom="16"
     inkscape:cx="29.34375"
     inkscape:cy="27.78125"
     inkscape:window-width="1885"
     inkscape:window-height="1167"
     inkscape:window-x="0"
     inkscape:window-y="0"
     inkscape:window-maximized="1"
     inkscape:current-layer="svg8" />
  <path
     fill-rule="evenodd"
     clip-rule="evenodd"
     d="M21.2707 0.577734C18.1003 1.19516 16.8556 2.91381 16.431 7.2627C16.1002 10.6418 15.6842 11.0146 10.8887 12.2258C8.03722 12.9466 5.14805 14.0921 4.46914 14.7709C2.40975 16.8301 5.90887 19.206 12.0795 19.9366L17.6552 20.5971L18.3805 26.0634C18.9743 30.5459 19.9732 32.4574 23.9336 36.6899C30.3542 43.5548 33.21 43.599 39.0832 36.9281C42.5974 32.9358 43.5554 30.8971 44.1492 26.142C44.9262 19.9258 44.4466 20.3536 52.4438 18.7308C53.7779 18.4603 55.8384 17.5207 57.0238 16.6426C58.9399 15.2224 59.0002 14.8646 57.5626 13.4218C56.6736 12.5296 53.5215 11.4004 50.5579 10.9123C45.1794 10.0266 45.1686 10.0169 44.8443 5.57637C44.5856 2.05071 44.0263 0.994736 42.1501 0.492609C39.5444 -0.206705 24.9918 -0.146363 21.2707 0.577734ZM40.1296 1.56798C43.1039 2.16277 43.4746 2.67783 43.7666 6.63343L44.0921 11.0373L50.0191 12.1665C53.9277 12.9122 55.9462 13.8238 55.9462 14.8442C55.9462 16.6781 51.808 17.8709 41.1404 19.1112C34.2014 19.9182 33.9083 20.0368 38.5497 20.1607C42.8484 20.276 43.6664 20.6057 43.1297 22.0054C42.7698 22.9429 42.4756 25.3781 42.4756 27.4167C42.4756 30.2636 41.4432 32.2441 38.0281 35.9486C35.5819 38.6025 32.7725 40.7737 31.7864 40.7737C30.7993 40.7737 27.9608 38.7038 25.4768 36.1727C21.9184 32.5479 20.7287 30.3455 19.8644 25.7897C19.2609 22.6088 18.7674 19.8859 18.7674 19.7394C18.7674 19.5917 16.1077 19.1392 12.8575 18.733C7.35615 18.0455 4.78165 16.6857 6.23432 15.2332C6.57162 14.8959 9.40907 14.0425 12.5386 13.3367C18.1272 12.0771 18.2307 11.9833 18.3395 8.0396C18.4656 3.45904 19.2835 2.36319 23.0779 1.6822C27.3853 0.909611 36.5313 0.848192 40.1296 1.56798ZM38.8838 4.85659C38.4883 5.25096 38.165 7.68725 38.165 10.2701C38.165 14.4013 38.5217 15.1028 41.1285 16.0963C42.884 16.7654 46.0695 16.8958 48.9415 16.4152L53.7909 15.6049L47.5944 14.5974L41.3979 13.591V8.8639C41.3979 4.4482 40.5854 3.1541 38.8838 4.85659ZM37.0873 27.5504C36.1983 27.8887 34.3146 29.0621 32.9007 30.159C30.1484 32.2947 31.5558 32.883 35.0032 31.0383C36.2683 30.3605 37.0873 30.3271 37.0873 30.9521C37.0873 31.5189 35.5118 32.3324 33.585 32.7591C30.6409 33.4121 30.4189 33.6556 32.1905 34.2838C34.2111 35.0004 34.2165 35.0769 32.3209 36.1372C30.9415 36.9087 30.726 37.4787 31.6075 38.0239C33.3253 39.0853 35.7521 36.8817 38.2437 31.9995C41.0639 26.4728 40.9615 26.0774 37.0873 27.5504Z"
     id="zoro-figure"
     fill="#000000"
     style="fill:#ffffff;fill-opacity:1" />
  <path
     d="M53.4139 64.3132C51.6764 64.3168 50.1227 63.9183 48.7528 63.1176C47.3828 62.3169 46.3055 61.255 45.5209 59.9318C44.7579 58.5869 44.3747 57.1 44.3713 55.4711C44.3678 53.8422 44.7448 52.3537 45.5021 51.0056C46.2811 49.6574 47.3539 48.5801 48.7205 47.7736C50.087 46.9671 51.639 46.5621 53.3765 46.5584C55.1357 46.5547 56.6894 46.9532 58.0376 47.754C59.4076 48.5547 60.4741 49.6275 61.237 50.9724C62.0217 52.3173 62.4158 53.8042 62.4192 55.4331C62.4226 57.062 62.0348 58.5505 61.2558 59.8987C60.4985 61.2251 59.4365 62.2915 58.0699 63.098C56.7251 63.9044 55.1731 64.3095 53.4139 64.3132ZM53.4055 60.3061C54.3393 60.3042 55.1533 60.0853 55.8474 59.6495C56.5414 59.1919 57.0723 58.5935 57.4399 57.8543C57.8293 57.1151 58.0231 56.3111 58.0212 55.4424C58.0194 54.5519 57.8222 53.7379 57.4297 53.0003C57.0589 52.2626 56.5256 51.6773 55.8297 51.2444C55.1338 50.7898 54.3188 50.5635 53.385 50.5655C52.4511 50.5674 51.6371 50.7972 50.9431 51.2547C50.249 51.6906 49.7073 52.2781 49.3179 53.0173C48.9502 53.7566 48.7674 54.5714 48.7692 55.4618C48.7711 56.3306 48.9574 57.1338 49.3281 57.8714C49.7206 58.609 50.2648 59.2051 50.9608 59.6597C51.6567 60.0926 52.4716 60.3081 53.4055 60.3061Z"
     fill="#FF5500"
     id="path1" />
  <path
     d="M34.8919 63.9287L34.8563 46.9884L39.1239 46.9794L39.1307 50.2046C39.4105 48.9877 39.9841 48.0635 40.8515 47.4318C41.7189 46.7784 42.891 46.4936 44.3681 46.5774L44.3768 50.7148L43.7578 50.7161C42.4982 50.7187 41.4348 51.1227 40.5678 51.9281C39.7007 52.7336 39.2687 53.8421 39.2717 55.2538L39.2899 63.9194L34.8919 63.9287Z"
     fill="#FF5500"
     id="path2" />
  <path
     d="M23.9223 64.3753C22.1848 64.3789 20.6311 63.9804 19.2611 63.1797C17.8912 62.379 16.8139 61.3171 16.0292 59.9939C15.2663 58.649 14.8831 57.1621 14.8796 55.5332C14.8762 53.9043 15.2531 52.4158 16.0104 51.0677C16.7895 49.7195 17.8623 48.6422 19.2288 47.8357C20.5954 47.0292 22.1474 46.6242 23.8849 46.6205C25.6441 46.6168 27.1978 47.0153 28.546 47.8161C29.916 48.6168 30.9824 49.6896 31.7454 51.0345C32.5301 52.3794 32.9241 53.8663 32.9276 55.4952C32.931 57.1241 32.5432 58.6126 31.7642 59.9608C31.0068 61.2872 29.9449 62.3536 28.5783 63.1601C27.2335 63.9665 25.6814 64.3716 23.9223 64.3753ZM23.9138 60.3682C24.8477 60.3663 25.6617 60.1474 26.3558 59.7115C27.0498 59.254 27.5806 58.6556 27.9483 57.9164C28.3377 57.1772 28.5314 56.3732 28.5296 55.5044C28.5277 54.614 28.3306 53.8 27.9381 53.0624C27.5673 52.3247 27.034 51.7394 26.3381 51.3065C25.6421 50.8519 24.8272 50.6256 23.8933 50.6276C22.9594 50.6295 22.1455 50.8593 21.4514 51.3168C20.7574 51.7527 20.2156 52.3402 19.8263 53.0794C19.4586 53.8186 19.2757 54.6335 19.2776 55.5239C19.2794 56.3927 19.4657 57.1959 19.8365 57.9335C20.229 58.6711 20.7732 59.2672 21.4691 59.7218C22.165 60.1547 22.9799 60.3702 23.9138 60.3682Z"
     fill="#FF5500"
     id="path3" />
  <path
     d="M0.0356631 64.002L0.0346343 63.5134L7.43755 51.7373C7.63233 51.4111 7.89222 51.063 8.21722 50.6931L0.366034 50.7097L0.358353 47.061L14.9531 47.0302L14.9541 47.5189L7.48645 59.4906C7.31326 59.7516 7.10753 60.0344 6.86926 60.339L14.8182 60.3222L14.8259 63.9709L0.0356631 64.002Z"
     fill="#FF5500"
     id="path4" />
  <path
     d="M53.6024 78.3561L53.5783 66.9146L55.6918 66.9102L55.6946 68.245C55.9161 67.789 56.2279 67.4229 56.6299 67.1466C57.0425 66.8703 57.6089 66.7314 58.3293 66.7298C58.9014 66.7286 59.4313 66.8441 59.9192 67.0761C60.4175 67.2975 60.8525 67.6091 61.2242 68.0109C61.5958 68.4021 61.8881 68.8623 62.1011 69.3916C62.3141 69.9102 62.4212 70.4662 62.4224 71.0595C62.4241 71.854 62.2402 72.5801 61.8708 73.2377C61.512 73.8847 61.0258 74.4048 60.4121 74.7981C59.7985 75.1808 59.1103 75.3729 58.3475 75.3745C57.6377 75.376 57.0813 75.25 56.6782 74.9966C56.275 74.7326 55.9618 74.3837 55.7384 73.9498L55.7477 78.3516L53.6024 78.3561ZM57.9938 73.4365C58.4494 73.4356 58.8464 73.3235 59.185 73.1003C59.5341 72.8771 59.8036 72.5852 59.9936 72.2246C60.1835 71.8534 60.278 71.4613 60.2771 71.0481C60.2762 70.6137 60.18 70.2167 59.9886 69.8569C59.7971 69.4971 59.5264 69.2116 59.1763 69.0005C58.8369 68.7787 58.4393 68.6683 57.9838 68.6693C57.5177 68.6703 57.11 68.7823 56.7609 69.0056C56.4118 69.2288 56.1422 69.5207 55.9523 69.8813C55.7624 70.2419 55.6679 70.6393 55.6688 71.0737C55.6697 71.4974 55.7658 71.8892 55.9573 72.249C56.1487 72.6088 56.4195 72.8996 56.7696 73.1213C57.1196 73.3324 57.5277 73.4375 57.9938 73.4365Z"
     fill="#B8B6C2"
     id="path5" />
  <path
     d="M47.5701 75.3972C46.8179 75.3988 46.1289 75.2095 45.503 74.8295C44.8878 74.4388 44.3941 73.9207 44.0219 73.2753C43.6603 72.6192 43.4787 71.8939 43.477 71.0993C43.4758 70.5061 43.5805 69.9497 43.7913 69.4301C44.0021 68.9 44.2925 68.4385 44.6624 68.0458C45.0324 67.6424 45.4608 67.329 45.9476 67.1055C46.445 66.8714 46.9798 66.7537 47.5519 66.7525C48.2722 66.751 48.834 66.8875 49.2372 67.1621C49.6403 67.4261 49.9536 67.7804 50.177 68.2249L50.1742 66.9218L52.3036 66.9173L52.321 75.1806L50.2393 75.185L50.2365 73.8343C50.015 74.3009 49.6979 74.6776 49.2854 74.9645C48.8834 75.2514 48.3116 75.3956 47.5701 75.3972ZM47.9156 73.4578C48.3923 73.4568 48.8 73.35 49.1385 73.1374C49.4876 72.9142 49.7572 72.6223 49.9471 72.2617C50.137 71.9011 50.2316 71.5089 50.2307 71.0851C50.2298 70.6508 50.1336 70.2537 49.9421 69.8939C49.7507 69.5341 49.4799 69.2434 49.1298 69.0216C48.7904 68.7999 48.3823 68.6895 47.9055 68.6905C47.45 68.6914 47.0477 68.8035 46.6985 69.0267C46.36 69.2393 46.0957 69.5259 45.9058 69.8865C45.7159 70.2471 45.6214 70.6446 45.6223 71.0789C45.6231 71.4921 45.7193 71.8839 45.9108 72.2543C46.1022 72.6141 46.3677 72.9048 46.7072 73.1266C47.0572 73.3483 47.46 73.4587 47.9156 73.4578Z"
     fill="#B8B6C2"
     id="path6" />
  <path
     d="M33.2451 75.2207L30.6534 66.9629L33.1641 66.9576L34.2387 71.6432C34.2815 71.8444 34.3243 72.0562 34.3672 72.2786C34.4206 72.4903 34.4634 72.6968 34.4956 72.898C34.5583 72.4741 34.6474 72.0502 34.7631 71.6262L35.9609 66.9517L38.424 66.9465L39.721 71.6158C39.8385 72.0393 39.9294 72.4628 39.9939 72.8865C40.0252 72.6851 40.0619 72.4784 40.1038 72.2665C40.1563 72.0439 40.2035 71.8319 40.2455 71.6305L41.3798 66.9403L43.7157 66.9354L41.1588 75.2041L38.8387 75.209L37.4781 70.5081C37.3501 70.0952 37.2539 69.6822 37.1894 69.2692C37.1581 69.4706 37.1214 69.6772 37.0795 69.8892C37.0376 70.1012 36.9903 70.3078 36.9378 70.5092L35.7082 75.2156L33.2451 75.2207Z"
     fill="#B8B6C2"
     id="path7" />
  <path
     d="M27.5759 75.4393C26.1881 75.4422 25.043 74.9626 24.1405 74.0004L25.5838 72.6784C26.189 73.3552 26.836 73.6928 27.5246 73.6914C27.8954 73.6906 28.176 73.6105 28.3663 73.4512C28.5672 73.2813 28.6674 73.0745 28.6669 72.8309C28.6666 72.6825 28.6293 72.5555 28.5549 72.4497C28.4911 72.3439 28.3479 72.2436 28.1252 72.1487C27.9131 72.0538 27.5898 71.9591 27.1553 71.8647C26.4133 71.6861 25.8619 71.4648 25.5012 71.2007C25.1404 70.9367 24.9015 70.6405 24.7842 70.3124C24.667 69.9842 24.608 69.6453 24.6073 69.2957C24.6058 68.5753 24.8747 67.9762 25.4139 67.4983C25.9638 67.0098 26.7208 66.7646 27.6848 66.7626C28.3522 66.7612 28.9245 66.8606 29.4017 67.0609C29.8788 67.2612 30.3298 67.6363 30.7548 68.1863L29.2 69.3814C28.998 69.064 28.7698 68.8367 28.5152 68.6995C28.2713 68.5623 28.0116 68.494 27.7361 68.4946C27.4395 68.4952 27.1907 68.554 26.9896 68.6709C26.7992 68.7879 26.7042 68.9735 26.7048 69.2277C26.705 69.3655 26.7689 69.503 26.8963 69.6405C27.0237 69.7674 27.3312 69.8938 27.8188 70.0199C28.6244 70.2195 29.2393 70.4566 29.6636 70.7311C30.088 70.9951 30.3799 71.2964 30.5396 71.6351C30.6992 71.9738 30.7794 72.3497 30.7803 72.7628C30.7814 73.2714 30.6393 73.7272 30.3541 74.1304C30.0795 74.5335 29.6988 74.8521 29.212 75.0862C28.7357 75.3203 28.1904 75.438 27.5759 75.4393Z"
     fill="#B8B6C2"
     id="path8" />
  <path
     style="opacity:1;fill:#000000;fill-opacity:1;fill-rule:evenodd;stroke:none;stroke-width:0;stroke-dasharray:none;stroke-opacity:1;paint-order:markers stroke fill"
     d="M 31.177656,40.570343 C 29.811777,40.008532 27.523421,38.198731 25.310125,35.929868 22.312509,32.856994 21.079883,30.776917 20.245758,27.383663 20.071904,26.67642 19.255318,22.424635 18.931911,20.542756 18.825842,19.925547 18.761487,19.695847 18.682842,19.653757 18.412347,19.508992 16.493327,19.196805 12.34375,18.622508 8.8289701,18.136067 6.4318173,17.301724 5.9671111,16.403081 5.7434519,15.970572 5.9824758,15.386615 6.4872449,15.132348 7.3600321,14.692699 9.4935243,14.079337 12.90625,13.286934 c 3.489569,-0.810246 4.338786,-1.131021 4.845274,-1.830206 0.424185,-0.58557 0.529241,-1.158417 0.622478,-3.394228 0.09564,-2.2934466 0.24503,-3.2081094 0.668204,-4.0912223 0.660595,-1.3785813 2.062326,-2.0259235 5.274292,-2.4357528 4.566879,-0.58270885 12.007683,-0.5822794 15.433502,8.907e-4 2.020627,0.3439672 2.918581,0.7808025 3.348344,1.6288993 0.377232,0.7444328 0.496192,1.5619705 0.775572,5.3300088 0.104306,1.4068032 0.19644,2.5628353 0.204741,2.5689603 0.0083,0.0061 0.872905,0.172692 1.921343,0.370148 6.106496,1.150059 7.187075,1.413602 8.59375,2.095932 0.939681,0.455807 1.411528,0.982495 1.308417,1.460485 -0.07189,0.333265 -0.260867,0.641659 -0.540636,0.882281 -1.462021,1.257444 -5.49542,2.162278 -14.361531,3.2218 -4.626298,0.552854 -5.5625,0.694159 -5.5625,0.839571 0,0.122052 0.311379,0.1523 2.28125,0.221604 3.299762,0.116092 4.376966,0.231951 5.016659,0.539565 0.344508,0.165666 0.514591,0.388535 0.514591,0.674295 0,0.08658 -0.06733,0.363677 -0.149618,0.615765 -0.367583,1.126059 -0.660527,3.534033 -0.662264,5.443749 -0.0024,2.672739 -0.983045,4.646427 -3.947679,7.945521 -2.672065,2.973519 -5.645865,5.340783 -6.709189,5.340783 -0.1375,0 -0.409118,-0.06545 -0.603594,-0.14544 z m 2.374266,-2.533754 c 0.718633,-0.362764 1.354319,-0.925343 2.131997,-1.886808 0.966001,-1.19429 1.735822,-2.457557 2.909703,-4.774781 1.83251,-3.617349 2.046587,-4.59375 1.007185,-4.59375 -0.453788,0 -1.972458,0.481198 -2.944557,0.932997 -1.443668,0.670969 -4.267424,2.64884 -4.880481,3.418482 -0.266251,0.334257 -0.338269,0.484291 -0.338269,0.704713 0,0.264389 0.172865,0.341357 0.682092,0.3037 0.570905,-0.04222 1.409097,-0.339012 2.692908,-0.953525 1.474991,-0.706022 1.785094,-0.781465 2.099729,-0.510828 0.224044,0.192715 0.169275,0.423418 -0.176248,0.742403 -0.543236,0.501513 -1.760201,0.973125 -3.736378,1.447963 -1.56326,0.375622 -1.937103,0.528959 -1.937103,0.794526 0,0.204003 0.226185,0.317792 1.847586,0.929485 0.48783,0.184038 0.777414,0.374456 0.777414,0.511193 0,0.131711 -0.389395,0.424588 -1.186039,0.892062 -0.878433,0.515466 -1.20705,0.769654 -1.348404,1.043003 -0.151378,0.292733 -0.114728,0.527988 0.118605,0.761322 0.556058,0.556058 1.46257,0.650612 2.28026,0.237843 z M 47.90625,16.596799 c 1.201763,-0.160422 5.905707,-0.965402 5.861399,-1.003053 -0.02689,-0.02285 -2.81218,-0.488617 -6.189524,-1.035028 L 41.4375,13.565244 41.436533,10.845122 c -5.32e-4,-1.496067 -0.02959,-3.141997 -0.06457,-3.657622 -0.198,-2.9184127 -0.93879,-3.7439539 -2.295005,-2.5575701 -0.279456,0.2444618 -0.34375,0.3449028 -0.449777,0.7026525 -0.504941,1.70373 -0.665148,6.3215356 -0.282436,8.1408886 0.254259,1.208706 0.844892,1.852418 2.231131,2.43164 1.006657,0.420617 1.755379,0.596778 3.299126,0.776225 0.410942,0.04777 3.530124,-0.01764 4.03125,-0.08454 z"
     id="path11" />
</svg>
