<svg width="26" height="26" viewBox="0 0 26 26" fill="none" xmlns="http://www.w3.org/2000/svg">
<circle cx="13" cy="13" fill="white" r="8" />
<path d="M15.4265 11.44C15.0907 12.7834 12.9998 12.1009 12.3498 11.9167L12.9457 9.55504C13.6173 9.75004 15.7732 10.0317 15.4265 11.44ZM12.0573 13.13L11.4073 15.7409C12.209 15.9467 14.6898 16.7375 15.0582 15.2642C15.4482 13.7259 12.859 13.325 12.0573 13.13ZM23.5082 15.6217C22.0565 21.4284 16.1848 24.96 10.3782 23.5084C4.57151 22.0567 1.04309 16.185 2.49151 10.3784C2.83562 8.99831 3.44823 7.69954 4.29436 6.55627C5.14048 5.41299 6.20354 4.4476 7.42282 3.71523C8.6421 2.98285 9.99371 2.49785 11.4005 2.28792C12.8072 2.07798 14.2415 2.14723 15.6215 2.49171C21.4173 3.94338 24.949 9.81505 23.5082 15.6217ZM15.394 8.72088L15.8815 6.77088L14.6898 6.50005L14.2132 8.37421C13.899 8.29838 13.5848 8.22255 13.2598 8.15755L13.7365 6.24005L12.5557 5.95838L12.0682 7.89755C11.8082 7.83255 11.5482 7.77838 11.3098 7.71338L9.67401 7.30171L9.34901 8.56921C9.34901 8.56921 10.2373 8.77504 10.2157 8.78588C10.7032 8.90505 10.7898 9.20838 10.7682 9.47921L9.43567 14.82C9.38151 14.9717 9.20817 15.1667 8.89401 15.1125C8.90484 15.1234 8.02734 14.8959 8.02734 14.8959L7.44234 16.25L8.98067 16.64C9.27317 16.7159 9.55484 16.7917 9.83651 16.8567L9.33817 18.8284L10.5298 19.1317L11.0173 17.1709C11.3423 17.2575 11.6565 17.3334 11.9598 17.42L11.4723 19.3592L12.664 19.6625L13.1623 17.6909C15.1665 18.07 16.7048 17.9184 17.3332 16.0875C17.8748 14.625 17.3332 13.7584 16.2498 13.2059C17.0298 13 17.6148 12.5125 17.7773 11.4509C17.994 10.01 16.889 9.24088 15.394 8.72088Z" fill="#FF5500"/>
</svg>
