<svg width="26" height="26" viewBox="0 0 26 26" fill="none" xmlns="http://www.w3.org/2000/svg">
<circle cx="13" cy="13" fill="white" r="8" />
<path fill-rule="evenodd" clip-rule="evenodd" d="M12.9998 1.35413C6.56809 1.35413 1.354 6.56821 1.354 13C1.354 19.4317 6.56809 24.6458 12.9998 24.6458C19.4316 24.6458 24.6457 19.4317 24.6457 13C24.6457 6.56821 19.4316 1.35413 12.9998 1.35413ZM13.6607 4.94429C13.5855 4.83918 13.4863 4.75352 13.3714 4.69443C13.2564 4.63533 13.1291 4.6045 12.9998 4.6045C12.8706 4.6045 12.7432 4.63533 12.6283 4.69443C12.5134 4.75352 12.4142 4.83918 12.339 4.94429L6.92234 12.5276C6.82387 12.6654 6.77094 12.8306 6.77094 13C6.77094 13.1693 6.82387 13.3345 6.92234 13.4723L12.339 21.0556C12.4142 21.1607 12.5134 21.2464 12.6283 21.3055C12.7432 21.3646 12.8706 21.3954 12.9998 21.3954C13.1291 21.3954 13.2564 21.3646 13.3714 21.3055C13.4863 21.2464 13.5855 21.1607 13.6607 21.0556L19.0773 13.4723C19.1758 13.3345 19.2287 13.1693 19.2287 13C19.2287 12.8306 19.1758 12.6654 19.0773 12.5276L13.6607 4.94429ZM12.9998 19.1858L9.43892 14.1992L12.8406 14.8795C12.9468 14.9012 13.0529 14.9012 13.1591 14.8795L16.5608 14.1992L12.9998 19.1858ZM13.8123 13.092L17.0255 12.4496L13.8123 7.95163V13.092ZM12.1873 13.092V7.95163L8.97417 12.4496L12.1873 13.092Z" fill="#FF5500"/>
</svg>
